HIERARCHY
ROOT root
{
	OFFSET 0.000000 0.000000 0.000000
	CHANNELS 6 Xposition Yposition Zposition Zrotation Yrotation Xrotation
	JOINT lhip
	{
		OFFSET 0.058581 -0.082280 -0.017664
		CHANNELS 3 Zrotation Yrotation Xrotation
		JOINT lknee
		{
			OFFSET 0.043451 -0.386469 0.008037
			CHANNELS 3 Zrotation Yrotation Xrotation
			JOINT lankle
			{
				OFFSET -0.014790 -0.426874 -0.037428
				CHANNELS 3 Zrotation Yrotation Xrotation
				JOINT ltoe
				{
					OFFSET 0.041054 -0.060286 0.122042
					CHANNELS 3 Zrotation Yrotation Xrotation
					End Site
					{
						OFFSET 0.000000 0.000000 0.000000
					}
				}
			}
		}
	}
	JOINT rhip
	{
		OFFSET -0.060310 -0.090513 -0.013543
		CHANNELS 3 Zrotation Yrotation Xrotation
		JOINT rknee
		{
			OFFSET -0.043257 -0.383688 -0.004843
			CHANNELS 3 Zrotation Yrotation Xrotation
			JOINT rankle
			{
				OFFSET 0.019056 -0.420046 -0.034562
				CHANNELS 3 Zrotation Yrotation Xrotation
				JOINT rtoe
				{
					OFFSET -0.034840 -0.062106 0.130323
					CHANNELS 3 Zrotation Yrotation Xrotation
					End Site
					{
						OFFSET 0.000000 0.000000 0.000000
					}
				}
			}
		}
	}
	JOINT lowerback
	{
		OFFSET 0.004439 0.124404 -0.038385
		CHANNELS 3 Zrotation Yrotation Xrotation
		JOINT upperback
		{
			OFFSET 0.004488 0.137956 0.026820
			CHANNELS 3 Zrotation Yrotation Xrotation
			JOINT chest
			{
				OFFSET -0.002265 0.056032 0.002855
				CHANNELS 3 Zrotation Yrotation Xrotation
				JOINT lowerneck
				{
					OFFSET -0.013390 0.211636 -0.033468
					CHANNELS 3 Zrotation Yrotation Xrotation
					JOINT upperneck
					{
						OFFSET 0.010113 0.088937 0.050410
						CHANNELS 3 Zrotation Yrotation Xrotation
						End Site
						{
							OFFSET 0.000000 0.000000 0.000000
						}
					}
				}
				JOINT lclavicle
				{
					OFFSET 0.071702 0.114000 -0.018898
					CHANNELS 3 Zrotation Yrotation Xrotation
					JOINT lshoulder
					{
						OFFSET 0.122921 0.045205 -0.019046
						CHANNELS 3 Zrotation Yrotation Xrotation
						JOINT lelbow
						{
							OFFSET 0.255332 -0.015649 -0.022946
							CHANNELS 3 Zrotation Yrotation Xrotation
							JOINT lwrist
							{
								OFFSET 0.265709 0.012698 -0.007375
								CHANNELS 3 Zrotation Yrotation Xrotation
								End Site
								{
									OFFSET 0.000000 0.000000 0.000000
								}
							}
						}
					}
				}
				JOINT rclavicle
				{
					OFFSET -0.082954 0.112472 -0.023707
					CHANNELS 3 Zrotation Yrotation Xrotation
					JOINT rshoulder
					{
						OFFSET -0.113228 0.046853 -0.008472
						CHANNELS 3 Zrotation Yrotation Xrotation
						JOINT relbow
						{
							OFFSET -0.260127 -0.014369 -0.031269
							CHANNELS 3 Zrotation Yrotation Xrotation
							JOINT rwrist
							{
								OFFSET -0.269108 0.006794 -0.006027
								CHANNELS 3 Zrotation Yrotation Xrotation
								End Site
								{
									OFFSET 0.000000 0.000000 0.000000
								}
							}
						}
					}
				}
			}
		}
	}
}
MOTION
Frames: 7
Frame Time: 0.033333
0.008707 -0.092043 0.969370 -177.317397 -0.352011 91.318198 10.555350 3.328329 -8.177326 -6.221363 -3.479737 10.437708 -1.276136 4.068462 -7.743541 0.000000 -0.000000 0.000000 -12.421122 -6.612110 -13.376273 0.405323 -5.484652 17.965776 6.079508 -4.217358 -5.022705 0.000000 -0.000000 0.000000 0.057228 2.278018 17.303331 1.743237 -4.324818 7.083153 2.198477 1.621077 -4.934377 -0.754866 6.700739 8.343415 5.822238 1.608346 24.597581 -25.098383 -30.526216 7.740803 -74.790139 -27.901803 24.842462 4.363663 -8.786391 -1.872599 16.502444 10.099353 -31.942256 29.244362 29.179811 13.612210 64.034274 31.538643 15.660198 -11.196755 5.854825 -14.537141 5.661084 1.631764 -24.991378 
0.008114 -0.092343 0.969404 -177.308731 -0.354447 91.250934 10.532313 3.322496 -8.123898 -6.207582 -3.268984 10.438030 -0.861756 3.775814 -7.790302 0.000000 -0.000000 0.000000 -12.446184 -6.671253 -13.285952 0.342678 -5.618360 17.882853 5.767687 -3.961287 -4.974452 0.000000 -0.000000 0.000000 0.070474 2.300286 17.519546 1.691782 -4.444406 6.844142 2.272215 1.694369 -4.840085 -0.759872 6.669118 7.986029 5.831297 1.574589 24.887629 -25.134318 -30.714604 8.106070 -74.844814 -28.266635 24.308340 4.430109 -8.426294 -1.860125 16.216785 9.369286 -30.142609 29.234761 29.349558 13.994907 63.875712 31.549433 15.194194 -11.331316 6.183468 -14.510908 5.994540 1.761757 -25.152966 
0.007457 -0.092774 0.969495 -177.358189 -0.311864 91.288223 10.544417 3.393483 -8.197472 -6.208678 -3.236121 10.482122 -0.727134 3.668730 -7.854186 0.000000 -0.000000 0.000000 -12.415067 -6.762215 -13.391267 0.361251 -5.635345 17.866192 5.776061 -3.845932 -4.954570 0.000000 -0.000000 0.000000 0.189650 2.338072 17.532201 1.668682 -4.397367 6.799498 2.274876 1.664054 -4.787351 -0.923840 6.706056 7.845631 5.773040 1.680822 24.704009 -25.364000 -30.762631 8.089122 -74.682494 -28.217518 24.303190 4.296680 -8.426458 -1.903847 16.893841 9.663364 -28.896631 29.382957 29.264199 13.711812 63.687297 31.311840 15.138772 -11.080479 6.364824 -14.499974 5.985973 1.703916 -25.117764 
0.006425 -0.092842 0.969518 -177.328491 -0.367296 91.183725 10.438270 3.445832 -8.185884 -6.271374 -3.382908 10.684289 -0.758322 3.661200 -8.022391 0.000000 -0.000000 0.000000 -12.567113 -6.850413 -13.218875 0.371569 -5.717253 17.740699 5.838525 -3.718419 -4.907611 0.000000 -0.000000 0.000000 0.205824 2.374403 17.739401 1.686794 -4.454423 6.645478 2.275336 1.634920 -4.748326 -0.935231 6.915339 7.766287 5.715626 1.705541 24.773248 -25.378812 -30.811827 8.092702 -74.695792 -28.126193 24.334088 4.251520 -8.325809 -1.242881 16.976561 9.826534 -27.905203 29.442160 29.205228 13.621713 63.830525 31.225257 15.097864 -11.060909 6.361637 -14.579271 5.927990 1.565316 -25.385830 
0.005844 -0.093070 0.969499 -177.386761 -0.340087 91.189997 10.426148 3.471173 -8.254634 -6.288844 -3.390399 10.797917 -0.766203 3.752240 -8.102801 0.000000 -0.000000 0.000000 -12.568704 -6.847501 -13.198059 0.376044 -5.690404 17.635103 5.855823 -3.681459 -4.862191 0.000000 -0.000000 0.000000 0.236916 2.444767 17.818307 1.762159 -4.418432 6.470889 2.299100 1.583505 -4.695669 -0.969467 6.987040 7.724509 5.687062 1.684554 24.828180 -25.343150 -30.847230 8.148026 -74.709820 -28.124948 24.430822 4.111620 -8.220623 -1.003409 17.425175 9.739934 -28.176580 29.380266 29.197016 13.580873 64.002776 31.100130 15.312494 -11.063280 6.450625 -14.453551 5.304597 1.437811 -26.085134 
0.004869 -0.093342 0.969326 -177.499726 -0.340097 91.216407 10.414382 3.556259 -8.361245 -6.396460 -3.337782 10.991010 -0.684059 3.745779 -8.224823 0.000000 -0.000000 0.000000 -12.609824 -6.909234 -13.181471 0.438094 -5.508590 17.445304 5.867938 -3.647112 -4.767269 0.000000 -0.000000 0.000000 0.246364 2.515330 17.779012 1.780697 -4.450332 6.502413 2.330543 1.650582 -4.688323 -1.041677 6.983148 7.682383 5.726363 1.749587 24.739109 -25.357842 -30.978590 8.215612 -74.628318 -28.143105 24.303298 4.041405 -8.148335 -1.410915 18.419710 10.149145 -27.474529 29.490208 29.235235 13.655681 63.964008 31.066441 15.234651 -11.062147 6.625116 -14.791055 4.777094 1.095507 -25.874696 
0.003581 -0.093569 0.969198 -177.663841 -0.360333 91.169029 10.288789 3.585935 -8.382724 -6.349947 -3.266456 11.194582 -0.560933 3.820948 -8.321350 0.000000 -0.000000 0.000000 -12.695701 -6.920039 -13.171963 0.414711 -5.457499 17.381627 5.948389 -3.525733 -4.637753 0.000000 -0.000000 0.000000 0.333620 2.497716 17.816691 1.717693 -4.465895 6.624363 2.266850 1.686726 -4.732257 -1.123188 7.088093 7.717994 5.775128 1.897411 24.547845 -25.283221 -30.971524 8.138146 -74.508149 -27.988725 24.120395 4.022250 -8.357113 -1.333475 18.444694 10.329961 -27.130701 29.481028 29.219995 13.727660 64.055853 31.230465 15.202818 -11.148689 6.710475 -14.528761 5.199889 0.828124 -25.276050 
